<svg width="" height="100" viewBox="0 0 251 306" fill="none" xmlns="http://www.w3.org/2000/svg">
<path d="M249.224 174C169.224 326 249.224 304 118.462 304C6 304 70.2241 324 0.224133 174C0.224133 91.9893 -9.83128 5.01992e-06 118.462 0C268.326 -5.86398e-06 249.224 91.9893 249.224 174Z" fill="#FF0C0C"/>
<path fill-rule="evenodd" clip-rule="evenodd" d="M217 35H150V34H217V35ZM240 179.842L217 147.026V35H218V146.723L240.744 179.174L240 179.842ZM174 279.421L183.362 292.133L183.207 292.39L184 293L184.728 292.314L184.554 292.078L201 264.711V242.079H200.123L240.764 180.487L240 179.842L185 263.195V242.079H184V241.079H64V242.079H63V261.289L11.1701 179.831L30.7883 147.642L30 147.026H31V35.0183L97.1218 36.2314L97.1351 35.2315L30.0133 34.0001L30 35V147.026L10 179.842L47.6409 239H47V265H47.4548L47.2711 265.148L64.1454 291.646L63.4924 292.138L64 293L64.6807 292.486L64.7289 292.562L65.507 291.934L65.4765 291.886L82 279.421H174ZM174 279.421L174.728 278.735L183.916 291.212L200 264.446V242.265L184.764 265.356L184 264.711V242.079H64V262.86L64.7753 264.079L64 264.711H63V263.139L48 239.564V264.56L48.0492 264.52L64.9412 291.045L81.4924 278.559L82 279.421V278.421H174V279.421ZM98.1219 118.737H148.561H149.561V117.737V35H148.561V117.737H98.1219V36.2314H97.1219V117.737V118.737H98.1219Z" fill="black"/>
<path d="M150 35H149.5V35.5H150V35ZM150 34V33.5H149.5V34H150ZM217 34H217.5V33.5H217V34ZM217 147.026H216.5V147.184L216.591 147.313L217 147.026ZM218 35H218.5V34.5H218V35ZM218 146.723H217.5V146.881L217.591 147.01L218 146.723ZM240.744 179.174L241.078 179.546L241.408 179.25L241.154 178.887L240.744 179.174ZM183.362 292.133L183.79 292.391L183.962 292.105L183.764 291.837L183.362 292.133ZM183.207 292.39L182.779 292.133L182.549 292.515L182.903 292.786L183.207 292.39ZM184 293L183.695 293.396L184.033 293.656L184.343 293.364L184 293ZM184.728 292.314L185.071 292.678L185.393 292.374L185.13 292.017L184.728 292.314ZM184.554 292.078L184.125 291.821L183.954 292.106L184.151 292.375L184.554 292.078ZM201 264.711L201.429 264.968L201.5 264.849V264.711H201ZM201 242.079H201.5V241.579H201V242.079ZM200.123 242.079L199.706 241.804L199.194 242.579H200.123V242.079ZM240.764 180.487L241.181 180.763L241.426 180.392L241.087 180.106L240.764 180.487ZM185 263.195H184.5V264.861L185.417 263.47L185 263.195ZM185 242.079H185.5V241.579H185V242.079ZM184 241.079H184.5V240.579H184V241.079ZM64 241.079V240.579H63.5V241.079H64ZM63 242.079V241.579H62.5V242.079H63ZM63 261.289L62.5782 261.557L63.5 263.006V261.289H63ZM11.1701 179.831L10.7431 179.571L10.5811 179.837L10.7482 180.099L11.1701 179.831ZM30.7883 147.642L31.2153 147.902L31.4471 147.521L31.096 147.247L30.7883 147.642ZM31 147.026V147.526H31.5V147.026H31ZM31 35.0183L31.0092 34.5184L30.5 34.5091V35.0183H31ZM97.1218 36.2314L97.1126 36.7313L97.615 36.7406L97.6217 36.2381L97.1218 36.2314ZM97.1351 35.2315L97.635 35.2382L97.6416 34.7407L97.1442 34.7316L97.1351 35.2315ZM30.0133 34.0001L30.0225 33.5002L29.52 33.491L29.5133 33.9934L30.0133 34.0001ZM30 35L29.5 34.9933V35H30ZM10 179.842L9.57305 179.582L9.41099 179.848L9.57815 180.111L10 179.842ZM47.6409 239V239.5H48.5517L48.0628 238.732L47.6409 239ZM47 239V238.5H46.5V239H47ZM47 265H46.5V265.5H47V265ZM47.4548 265L47.7689 265.389L48.8703 264.5H47.4548V265ZM47.2711 265.148L46.957 264.759L46.6093 265.04L46.8493 265.417L47.2711 265.148ZM64.1454 291.646L64.4465 292.045L64.8152 291.767L64.5671 291.377L64.1454 291.646ZM63.4924 292.138L63.1913 291.739L62.8352 292.008L63.0616 292.392L63.4924 292.138ZM64 293L63.5692 293.254L63.8537 293.737L64.3011 293.399L64 293ZM64.6807 292.486L65.1025 292.218L64.8117 291.761L64.3796 292.087L64.6807 292.486ZM64.7289 292.562L64.3072 292.831L64.6076 293.303L65.043 292.951L64.7289 292.562ZM65.507 291.934L65.8211 292.323L66.1688 292.042L65.9288 291.665L65.507 291.934ZM65.4765 291.886L65.1754 291.487L64.8067 291.765L65.0548 292.155L65.4765 291.886ZM174.728 278.735L175.13 278.438L174.795 277.984L174.385 278.371L174.728 278.735ZM183.916 291.212L183.513 291.508L183.958 292.112L184.344 291.469L183.916 291.212ZM200 264.446L200.429 264.703L200.5 264.585V264.446H200ZM200 242.265H200.5V240.6L199.583 241.99L200 242.265ZM184.764 265.356L184.441 265.738L184.871 266.101L185.181 265.631L184.764 265.356ZM184 264.711H183.5V264.943L183.677 265.092L184 264.711ZM64 262.86H63.5V263.006L63.5782 263.129L64 262.86ZM64.7753 264.079L65.0911 264.467L65.4358 264.186L65.1971 263.81L64.7753 264.079ZM64 264.711V265.211H64.1779L64.3158 265.098L64 264.711ZM63 264.711H62.5V265.211H63V264.711ZM63 263.139H63.5V262.993L63.4218 262.87L63 263.139ZM48 239.564L48.4218 239.296L47.5 237.847V239.564H48ZM48 264.56H47.5V265.606L48.314 264.949L48 264.56ZM48.0492 264.52L48.471 264.252L48.1705 263.78L47.7352 264.131L48.0492 264.52ZM64.9412 291.045L64.5194 291.314L64.8102 291.771L65.2423 291.445L64.9412 291.045ZM81.4924 278.559L81.9232 278.306L81.6387 277.823L81.1913 278.16L81.4924 278.559ZM82 278.421V277.921H81.5V278.421H82ZM174 278.421H174.5V277.921H174V278.421ZM149.561 118.737V119.237H150.061V118.737H149.561ZM149.561 35H150.061V34.5H149.561V35ZM148.561 35V34.5H148.061V35H148.561ZM148.561 117.737V118.237H149.061V117.737H148.561ZM98.1219 117.737H97.6219V118.237H98.1219V117.737ZM98.1219 36.2314H98.6219V35.7314H98.1219V36.2314ZM97.1219 36.2314V35.7314H96.6219V36.2314H97.1219ZM97.1219 118.737H96.6219V119.237H97.1219V118.737ZM150 35.5H217V34.5H150V35.5ZM149.5 34V35H150.5V34H149.5ZM217 33.5H150V34.5H217V33.5ZM217.5 35V34H216.5V35H217.5ZM216.591 147.313L239.591 180.129L240.409 179.555L217.409 146.739L216.591 147.313ZM216.5 35V147.026H217.5V35H216.5ZM218 34.5H217V35.5H218V34.5ZM218.5 146.723V35H217.5V146.723H218.5ZM241.154 178.887L218.409 146.436L217.591 147.01L240.335 179.461L241.154 178.887ZM240.334 180.214L241.078 179.546L240.41 178.802L239.666 179.47L240.334 180.214ZM173.597 279.718L182.959 292.43L183.764 291.837L174.403 279.125L173.597 279.718ZM182.933 291.876L182.779 292.133L183.636 292.648L183.79 292.391L182.933 291.876ZM182.903 292.786L183.695 293.396L184.305 292.604L183.512 291.994L182.903 292.786ZM184.343 293.364L185.071 292.678L184.385 291.95L183.657 292.636L184.343 293.364ZM185.13 292.017L184.957 291.782L184.151 292.375L184.325 292.61L185.13 292.017ZM184.983 292.336L201.429 264.968L200.571 264.453L184.125 291.821L184.983 292.336ZM201.5 264.711V242.079H200.5V264.711H201.5ZM201 241.579H200.123V242.579H201V241.579ZM200.54 242.354L241.181 180.763L240.347 180.212L199.706 241.804L200.54 242.354ZM241.087 180.106L240.323 179.46L239.677 180.224L240.441 180.869L241.087 180.106ZM239.583 179.567L184.583 262.92L185.417 263.47L240.417 180.117L239.583 179.567ZM185.5 263.195V242.079H184.5V263.195H185.5ZM185 241.579H184V242.579H185V241.579ZM184.5 242.079V241.079H183.5V242.079H184.5ZM184 240.579H64V241.579H184V240.579ZM63.5 241.079V242.079H64.5V241.079H63.5ZM64 241.579H63V242.579H64V241.579ZM62.5 242.079V261.289H63.5V242.079H62.5ZM63.4218 261.02L11.5919 179.563L10.7482 180.099L62.5782 261.557L63.4218 261.02ZM11.597 180.091L31.2153 147.902L30.3614 147.381L10.7431 179.571L11.597 180.091ZM31.096 147.247L30.3076 146.632L29.6924 147.42L30.4807 148.036L31.096 147.247ZM30 147.526H31V146.526H30V147.526ZM31.5 147.026V35.0183H30.5V147.026H31.5ZM30.9908 35.5183L97.1126 36.7313L97.1309 35.7315L31.0092 34.5184L30.9908 35.5183ZM97.6217 36.2381L97.635 35.2382L96.6351 35.2249L96.6218 36.2248L97.6217 36.2381ZM97.1442 34.7316L30.0225 33.5002L30.0041 34.5L97.1259 35.7314L97.1442 34.7316ZM29.5133 33.9934L29.5 34.9933L30.5 35.0067L30.5133 34.0067L29.5133 33.9934ZM29.5 35V147.026H30.5V35H29.5ZM29.573 146.766L9.57305 179.582L10.427 180.102L30.427 147.287L29.573 146.766ZM9.57815 180.111L47.2191 239.268L48.0628 238.732L10.4218 179.574L9.57815 180.111ZM47.6409 238.5H47V239.5H47.6409V238.5ZM46.5 239V265H47.5V239H46.5ZM47 265.5H47.4548V264.5H47V265.5ZM47.1408 264.611L46.957 264.759L47.5851 265.537L47.7689 265.389L47.1408 264.611ZM46.8493 265.417L63.7236 291.914L64.5671 291.377L47.6928 264.88L46.8493 265.417ZM63.8442 291.247L63.1913 291.739L63.7935 292.538L64.4465 292.045L63.8442 291.247ZM63.0616 292.392L63.5692 293.254L64.4308 292.746L63.9232 291.885L63.0616 292.392ZM64.3011 293.399L64.9818 292.886L64.3796 292.087L63.6989 292.601L64.3011 293.399ZM64.259 292.755L64.3072 292.831L65.1507 292.294L65.1025 292.218L64.259 292.755ZM65.043 292.951L65.8211 292.323L65.193 291.545L64.4148 292.173L65.043 292.951ZM65.9288 291.665L65.8983 291.618L65.0548 292.155L65.0853 292.203L65.9288 291.665ZM65.7776 292.285L82.3011 279.82L81.6989 279.022L65.1754 291.487L65.7776 292.285ZM82 279.921H174V278.921H82V279.921ZM174.385 278.371L173.657 279.057L174.343 279.785L175.071 279.099L174.385 278.371ZM184.318 290.915L175.13 278.438L174.325 279.031L183.513 291.508L184.318 290.915ZM199.571 264.188L183.487 290.954L184.344 291.469L200.429 264.703L199.571 264.188ZM199.5 242.265V264.446H200.5V242.265H199.5ZM185.181 265.631L200.417 242.541L199.583 241.99L184.347 265.081L185.181 265.631ZM183.677 265.092L184.441 265.738L185.087 264.974L184.323 264.329L183.677 265.092ZM183.5 242.079V264.711H184.5V242.079H183.5ZM64 242.579H184V241.579H64V242.579ZM64.5 262.86V242.079H63.5V262.86H64.5ZM65.1971 263.81L64.4218 262.592L63.5782 263.129L64.3534 264.347L65.1971 263.81ZM64.3158 265.098L65.0911 264.467L64.4594 263.691L63.6842 264.323L64.3158 265.098ZM63 265.211H64V264.211H63V265.211ZM62.5 263.139V264.711H63.5V263.139H62.5ZM47.5782 239.833L62.5782 263.407L63.4218 262.87L48.4218 239.296L47.5782 239.833ZM48.5 264.56V239.564H47.5V264.56H48.5ZM47.7352 264.131L47.686 264.171L48.314 264.949L48.3632 264.909L47.7352 264.131ZM65.3629 290.777L48.471 264.252L47.6275 264.789L64.5194 291.314L65.3629 290.777ZM81.1913 278.16L64.64 290.646L65.2423 291.445L81.7935 278.959L81.1913 278.16ZM82.4308 279.167L81.9232 278.306L81.0616 278.813L81.5692 279.675L82.4308 279.167ZM81.5 278.421V279.421H82.5V278.421H81.5ZM174 277.921H82V278.921H174V277.921ZM174.5 279.421V278.421H173.5V279.421H174.5ZM148.561 118.237H98.1219V119.237H148.561V118.237ZM149.561 118.237H148.561V119.237H149.561V118.237ZM149.061 117.737V118.737H150.061V117.737H149.061ZM149.061 35V117.737H150.061V35H149.061ZM148.561 35.5H149.561V34.5H148.561V35.5ZM149.061 117.737V35H148.061V117.737H149.061ZM98.1219 118.237H148.561V117.237H98.1219V118.237ZM97.6219 36.2314V117.737H98.6219V36.2314H97.6219ZM97.1219 36.7314H98.1219V35.7314H97.1219V36.7314ZM97.6219 117.737V36.2314H96.6219V117.737H97.6219ZM97.6219 118.737V117.737H96.6219V118.737H97.6219ZM98.1219 118.237H97.1219V119.237H98.1219V118.237Z" fill="black"/>
<rect x="52.5615" y="136.189" width="54" height="22" transform="rotate(5 52.5615 136.189)" fill="black" stroke="#010101"/>
<rect x="140.534" y="140.301" width="54" height="22" transform="rotate(-4 140.534 140.301)" fill="black" stroke="#010101"/>
</svg>
